<mxfile host="app.diagrams.net" modified="2022-07-13T11:08:09.087Z" agent="5.0 (Windows NT 10.0; Win64; x64) AppleWebKit/537.36 (KHTML, like Gecko) Chrome/103.0.0.0 Safari/537.36" etag="-qMNK_06RnE-sk0QJEws" version="20.1.1" type="github">
  <diagram id="uziK3NO7eQcpJdqtWjjK" name="Page-1">
    <mxGraphModel dx="353" dy="624" grid="1" gridSize="10" guides="1" tooltips="1" connect="1" arrows="1" fold="1" page="1" pageScale="1" pageWidth="827" pageHeight="1169" math="0" shadow="0">
      <root>
        <mxCell id="0" />
        <mxCell id="1" parent="0" />
        <mxCell id="AOiTqFv167IxLG4Y2etf-3" value="&lt;font style=&quot;font-size: 18px;&quot;&gt;开始&lt;/font&gt;" style="rounded=1;whiteSpace=wrap;html=1;" vertex="1" parent="1">
          <mxGeometry x="330" y="230" width="110" height="40" as="geometry" />
        </mxCell>
        <mxCell id="AOiTqFv167IxLG4Y2etf-4" value="" style="endArrow=classic;html=1;rounded=0;fontSize=18;exitX=0.495;exitY=1;exitDx=0;exitDy=0;exitPerimeter=0;" edge="1" parent="1" source="AOiTqFv167IxLG4Y2etf-3">
          <mxGeometry width="50" height="50" relative="1" as="geometry">
            <mxPoint x="385" y="280" as="sourcePoint" />
            <mxPoint x="384" y="300" as="targetPoint" />
            <Array as="points" />
          </mxGeometry>
        </mxCell>
        <mxCell id="AOiTqFv167IxLG4Y2etf-5" value="输入数据，预设分类数量" style="rounded=0;whiteSpace=wrap;html=1;fontSize=18;" vertex="1" parent="1">
          <mxGeometry x="290" y="300" width="200" height="30" as="geometry" />
        </mxCell>
        <mxCell id="AOiTqFv167IxLG4Y2etf-6" value="" style="endArrow=classic;html=1;rounded=0;fontSize=18;exitX=0.468;exitY=1.033;exitDx=0;exitDy=0;exitPerimeter=0;" edge="1" parent="1" source="AOiTqFv167IxLG4Y2etf-5">
          <mxGeometry width="50" height="50" relative="1" as="geometry">
            <mxPoint x="384.5" y="340" as="sourcePoint" />
            <mxPoint x="384" y="360" as="targetPoint" />
          </mxGeometry>
        </mxCell>
        <mxCell id="AOiTqFv167IxLG4Y2etf-7" value="计算聚类中心" style="rounded=0;whiteSpace=wrap;html=1;fontSize=18;" vertex="1" parent="1">
          <mxGeometry x="320" y="360" width="130" height="30" as="geometry" />
        </mxCell>
      </root>
    </mxGraphModel>
  </diagram>
</mxfile>
